<svg width="224" height="204" viewBox="0 0 224 204" fill="none" xmlns="http://www.w3.org/2000/svg">
<path d="M217.273 155.948L210.137 146.985V142.022C213.366 140.36 216.088 137.864 218.017 134.792C219.945 131.721 221.011 128.189 221.101 124.566C221.19 120.778 220.21 117.04 218.271 113.781C216.332 110.522 213.514 107.872 210.137 106.135V42.7789C210.139 38.2947 208.646 33.9373 205.892 30.393C203.139 26.8487 199.281 24.319 194.927 23.2024V22.2192C194.927 22.1384 194.927 22.0643 194.927 21.9903C194.927 21.8084 194.927 21.6266 194.927 21.4448C194.927 21.263 194.927 21.1215 194.927 20.9599C194.927 20.7983 194.927 20.6434 194.927 20.4818C194.927 20.3202 194.894 20.1181 194.873 19.9431C194.853 19.768 194.84 19.6737 194.819 19.539C194.799 19.4043 194.765 19.1349 194.732 18.9396C194.698 18.7443 194.732 18.7174 194.678 18.6097C194.637 18.3874 194.597 18.1719 194.549 17.9362C194.549 17.842 194.502 17.7477 194.482 17.6467C194.428 17.4244 194.381 17.2022 194.32 16.9732L194.239 16.6904C194.178 16.4749 194.117 16.2527 194.043 16.017C193.969 15.7813 193.969 15.7947 193.935 15.687L193.733 15.1011L193.57 14.6971C193.503 14.5354 193.442 14.3671 193.368 14.2055C193.294 14.0438 193.219 13.8755 193.145 13.7139C193.071 13.5522 193.03 13.458 192.97 13.3368C192.909 13.2155 192.781 12.9529 192.679 12.7643L192.524 12.4748C192.416 12.2727 192.301 12.0707 192.18 11.8754L192.038 11.633L191.66 11.0404C191.606 10.9663 191.559 10.8855 191.505 10.8047L191.113 10.2592L190.917 9.99655L190.539 9.51168C190.452 9.41067 190.371 9.30966 190.29 9.20191L189.925 8.79113C189.824 8.66991 189.716 8.55543 189.608 8.43422L189.27 8.08402L188.885 7.70019L188.723 7.53855L188.555 7.38367L188.143 7.01328L187.792 6.71025L187.393 6.387L186.995 6.07723C186.874 5.98295 186.752 5.88867 186.624 5.80112L186.178 5.48461L185.834 5.25565L185.341 4.93914L185.004 4.74384L184.484 4.44079L184.139 4.26571C183.964 4.17143 183.788 4.07716 183.613 3.99635C183.437 3.91554 183.356 3.87512 183.228 3.81451C183.1 3.7539 182.897 3.65963 182.729 3.59229L182.276 3.40373L181.824 3.22863L181.304 3.04681L180.899 2.91212L180.332 2.74376L179.961 2.63601L179.373 2.4946L179.002 2.40705L178.421 2.2993L178.016 2.22523L177.476 2.14443L177.011 2.09054L176.511 2.0434C176.342 2.0434 176.167 2.00973 175.998 2.00299C175.829 1.99626 175.687 2.00299 175.532 2.00299H174.978H22.2527C16.8814 2.00299 11.73 4.1315 7.93188 7.92025C4.13376 11.709 2 16.8476 2 22.2058V136.365C2.00086 140.381 3.20165 144.306 5.44904 147.638C7.69644 150.97 10.8884 153.558 14.6174 155.073V155.147C14.6174 160.505 16.7512 165.643 20.5493 169.432C24.3474 173.221 29.4988 175.349 34.8702 175.349H118.642C119.401 179.043 121.181 182.452 123.78 185.189C126.38 187.926 129.696 189.883 133.352 190.838C137.265 191.861 141.395 191.692 145.21 190.352C149.026 189.013 152.352 186.565 154.76 183.323L156.913 180.42L167.424 194.226C170.67 198.494 175.483 201.302 180.805 202.031C181.715 202.153 182.633 202.216 183.552 202.219C187.975 202.218 192.276 200.773 195.798 198.104L213.654 184.582C215.803 182.956 217.604 180.918 218.952 178.587C220.301 176.257 221.169 173.682 221.506 171.013C221.84 168.347 221.637 165.642 220.911 163.055C220.184 160.468 218.947 158.052 217.273 155.948V155.948Z" fill="#FF6123" stroke="black" stroke-width="2.84054" stroke-miterlimit="10"/>
<path d="M189.884 128.381V153.258L189.445 153.601L174.033 134.234C174.016 134.212 174.004 134.187 173.998 134.16C173.992 134.133 173.993 134.105 173.999 134.079C174.007 134.052 174.02 134.028 174.039 134.008C174.058 133.988 174.081 133.973 174.107 133.964L189.83 128.227L189.884 128.381Z" fill="black"/>
<path d="M189.886 42.8994V118.747L189.576 119.481L174.508 113.165L174.677 112.761V42.8994H189.886Z" fill="black"/>
<path d="M156.859 147.07L162.894 155.003L162.529 155.279H150.526L156.602 147.09C156.618 147.07 156.639 147.053 156.662 147.041C156.685 147.03 156.711 147.023 156.737 147.023V147.023C156.782 147.023 156.826 147.039 156.859 147.07V147.07Z" fill="black"/>
<path d="M134.049 136.448L136.438 155.271L136.344 155.284H34.8711V136.502H133.617L134.049 136.448Z" fill="black"/>
<path d="M133.616 136.498H34.8704H22.2529V42.8983V22.3386H155.043H174.675V42.8983V112.759" stroke="black" stroke-width="2.84054" stroke-linecap="round" stroke-linejoin="round"/>
<path d="M22.6582 42.8994H155.043H174.527" stroke="black" stroke-width="2.84054" stroke-linecap="round" stroke-linejoin="round"/>
<path d="M155.043 42.903V23.4814" stroke="black" stroke-width="2.84054" stroke-linecap="round" stroke-linejoin="round"/>
<path d="M155.043 42.8983L164.542 32.9451L174.675 22.3386" stroke="black" stroke-width="2.84054" stroke-linecap="round" stroke-linejoin="round"/>
<path d="M136.344 155.279H34.8711V136.497V136.16" stroke="black" stroke-width="2.84054" stroke-linecap="round" stroke-linejoin="round"/>
<path d="M162.529 155.278H150.526" stroke="black" stroke-width="2.84054" stroke-linecap="round" stroke-linejoin="round"/>
<path d="M189.884 128.382V153.258" stroke="black" stroke-width="2.84054" stroke-linecap="round" stroke-linejoin="round"/>
<path d="M155.043 23.4814L164.542 32.9498L174.526 42.903H174.675H189.884V118.751" stroke="black" stroke-width="2.84054" stroke-linecap="round" stroke-linejoin="round"/>
<path d="M33.1949 33.9121C34.0674 33.9121 34.7747 33.2066 34.7747 32.3363C34.7747 31.466 34.0674 30.7605 33.1949 30.7605C32.3225 30.7605 31.6152 31.466 31.6152 32.3363C31.6152 33.2066 32.3225 33.9121 33.1949 33.9121Z" stroke="black" stroke-width="2.84054" stroke-linecap="round" stroke-linejoin="round"/>
<path d="M43.7887 33.9121C44.6611 33.9121 45.3684 33.2066 45.3684 32.3363C45.3684 31.466 44.6611 30.7605 43.7887 30.7605C42.9162 30.7605 42.209 31.466 42.209 32.3363C42.209 33.2066 42.9162 33.9121 43.7887 33.9121Z" stroke="black" stroke-width="2.84054" stroke-linecap="round" stroke-linejoin="round"/>
<path d="M54.3795 33.9121C55.252 33.9121 55.9592 33.2066 55.9592 32.3363C55.9592 31.466 55.252 30.7605 54.3795 30.7605C53.5071 30.7605 52.7998 31.466 52.7998 32.3363C52.7998 33.2066 53.5071 33.9121 54.3795 33.9121Z" stroke="black" stroke-width="2.84054" stroke-linecap="round" stroke-linejoin="round"/>
<path d="M144.829 100.72L174.533 113.165L189.601 119.482L200.875 124.196L189.858 128.236L174.135 133.974C174.109 133.983 174.086 133.998 174.067 134.018C174.048 134.038 174.034 134.062 174.027 134.088C174.021 134.115 174.02 134.143 174.026 134.17C174.032 134.196 174.044 134.221 174.061 134.243L189.473 153.611L201.436 168.642L183.553 182.157L162.895 155.005L156.86 147.072C156.843 147.051 156.823 147.035 156.8 147.023C156.776 147.011 156.751 147.005 156.724 147.004V147.004C156.698 147.005 156.673 147.011 156.649 147.023C156.626 147.035 156.606 147.051 156.589 147.072L150.514 155.261L138.497 171.423L136.472 155.261L134.082 136.405L131.051 112.465" stroke="black" stroke-width="2.84054" stroke-linecap="round" stroke-linejoin="round"/>
<path d="M131.016 112.508L128.667 93.9483L144.829 100.723C155.502 88.3993 152.633 78.5942 143.62 74.6345C132.522 69.7656 117.427 78.6212 117.427 78.6212C117.427 78.6212 121.423 49.839 85.9067 58.6945C52.5843 67.0046 38.5964 91.6048 45.9549 104.75C56.6078 123.795 86.7979 106.966 86.7979 106.966C83.5034 127.896 112.553 124.091 131.016 112.508Z" stroke="black" stroke-width="2.84054" stroke-linecap="round" stroke-linejoin="round"/>
</svg>
